<mxfile host="Electron" agent="Mozilla/5.0 (X11; Linux x86_64) AppleWebKit/537.36 (KHTML, like Gecko) draw.io/25.0.1 Chrome/128.0.6613.186 Electron/32.2.6 Safari/537.36" version="25.0.1">
  <diagram name="Page-1" id="Z2PccfvPbPh8A0cyLoeL">
    <mxGraphModel dx="1417" dy="848" grid="1" gridSize="10" guides="1" tooltips="1" connect="1" arrows="1" fold="1" page="0" pageScale="1" pageWidth="850" pageHeight="1100" math="0" shadow="0">
      <root>
        <mxCell id="0" />
        <mxCell id="1" parent="0" />
        <mxCell id="zjCCnRBUAYXtm5TMgBEc-1" value="" style="rounded=0;whiteSpace=wrap;html=1;" parent="1" vertex="1">
          <mxGeometry width="850" height="300" as="geometry" />
        </mxCell>
        <mxCell id="zjCCnRBUAYXtm5TMgBEc-2" value="" style="endArrow=none;html=1;rounded=0;" parent="1" edge="1">
          <mxGeometry width="50" height="50" relative="1" as="geometry">
            <mxPoint y="50" as="sourcePoint" />
            <mxPoint x="850" y="50" as="targetPoint" />
          </mxGeometry>
        </mxCell>
        <mxCell id="zjCCnRBUAYXtm5TMgBEc-3" value="" style="endArrow=none;html=1;rounded=0;" parent="1" edge="1">
          <mxGeometry width="50" height="50" relative="1" as="geometry">
            <mxPoint y="100" as="sourcePoint" />
            <mxPoint x="850" y="100" as="targetPoint" />
          </mxGeometry>
        </mxCell>
        <mxCell id="zjCCnRBUAYXtm5TMgBEc-4" value="" style="endArrow=none;html=1;rounded=0;" parent="1" edge="1">
          <mxGeometry width="50" height="50" relative="1" as="geometry">
            <mxPoint y="149.66" as="sourcePoint" />
            <mxPoint x="850" y="149.66" as="targetPoint" />
          </mxGeometry>
        </mxCell>
        <mxCell id="zjCCnRBUAYXtm5TMgBEc-5" value="" style="endArrow=none;html=1;rounded=0;" parent="1" edge="1">
          <mxGeometry width="50" height="50" relative="1" as="geometry">
            <mxPoint y="200" as="sourcePoint" />
            <mxPoint x="850" y="200" as="targetPoint" />
          </mxGeometry>
        </mxCell>
        <mxCell id="zjCCnRBUAYXtm5TMgBEc-6" value="" style="endArrow=none;html=1;rounded=0;" parent="1" edge="1">
          <mxGeometry width="50" height="50" relative="1" as="geometry">
            <mxPoint y="250" as="sourcePoint" />
            <mxPoint x="850" y="250" as="targetPoint" />
          </mxGeometry>
        </mxCell>
        <mxCell id="zjCCnRBUAYXtm5TMgBEc-7" value="" style="endArrow=none;html=1;rounded=0;" parent="1" edge="1">
          <mxGeometry width="50" height="50" relative="1" as="geometry">
            <mxPoint x="170" y="300" as="sourcePoint" />
            <mxPoint x="170" y="100" as="targetPoint" />
          </mxGeometry>
        </mxCell>
        <mxCell id="zjCCnRBUAYXtm5TMgBEc-8" value="" style="endArrow=none;html=1;rounded=0;" parent="1" edge="1">
          <mxGeometry width="50" height="50" relative="1" as="geometry">
            <mxPoint x="340" y="300" as="sourcePoint" />
            <mxPoint x="340" y="100" as="targetPoint" />
          </mxGeometry>
        </mxCell>
        <mxCell id="zjCCnRBUAYXtm5TMgBEc-10" value="" style="endArrow=none;html=1;rounded=0;" parent="1" edge="1">
          <mxGeometry width="50" height="50" relative="1" as="geometry">
            <mxPoint x="680" y="300" as="sourcePoint" />
            <mxPoint x="680" y="50" as="targetPoint" />
          </mxGeometry>
        </mxCell>
        <mxCell id="zjCCnRBUAYXtm5TMgBEc-11" value="5 ; 5" style="text;html=1;align=center;verticalAlign=middle;whiteSpace=wrap;rounded=0;" parent="1" vertex="1">
          <mxGeometry x="-10" y="50" width="60" height="30" as="geometry" />
        </mxCell>
        <mxCell id="zjCCnRBUAYXtm5TMgBEc-14" value="73 ; 3" style="text;html=1;align=center;verticalAlign=middle;whiteSpace=wrap;rounded=0;" parent="1" vertex="1">
          <mxGeometry x="800" y="20" width="60" height="30" as="geometry" />
        </mxCell>
        <mxCell id="zjCCnRBUAYXtm5TMgBEc-15" value="5 ; 1" style="text;html=1;align=center;verticalAlign=middle;whiteSpace=wrap;rounded=0;" parent="1" vertex="1">
          <mxGeometry x="-10" width="60" height="30" as="geometry" />
        </mxCell>
        <mxCell id="zjCCnRBUAYXtm5TMgBEc-16" value="59 ; 7" style="text;html=1;align=center;verticalAlign=middle;whiteSpace=wrap;rounded=0;" parent="1" vertex="1">
          <mxGeometry x="630" y="70" width="60" height="30" as="geometry" />
        </mxCell>
        <mxCell id="zjCCnRBUAYXtm5TMgBEc-17" value="61 ; 6" style="text;html=1;align=center;verticalAlign=middle;whiteSpace=wrap;rounded=0;" parent="1" vertex="1">
          <mxGeometry x="670" y="50" width="60" height="30" as="geometry" />
        </mxCell>
        <mxCell id="zjCCnRBUAYXtm5TMgBEc-18" value="73 ; 7" style="text;html=1;align=center;verticalAlign=middle;whiteSpace=wrap;rounded=0;" parent="1" vertex="1">
          <mxGeometry x="800" y="70" width="60" height="30" as="geometry" />
        </mxCell>
        <mxCell id="zjCCnRBUAYXtm5TMgBEc-19" value="5 ; 9" style="text;html=1;align=center;verticalAlign=middle;whiteSpace=wrap;rounded=0;" parent="1" vertex="1">
          <mxGeometry x="-10" y="100" width="60" height="30" as="geometry" />
        </mxCell>
        <mxCell id="zjCCnRBUAYXtm5TMgBEc-20" value="5; 13" style="text;html=1;align=center;verticalAlign=middle;whiteSpace=wrap;rounded=0;" parent="1" vertex="1">
          <mxGeometry x="-10" y="150" width="60" height="30" as="geometry" />
        </mxCell>
        <mxCell id="zjCCnRBUAYXtm5TMgBEc-21" value="5 ; 17" style="text;html=1;align=center;verticalAlign=middle;whiteSpace=wrap;rounded=0;" parent="1" vertex="1">
          <mxGeometry x="-10" y="200" width="60" height="30" as="geometry" />
        </mxCell>
        <mxCell id="zjCCnRBUAYXtm5TMgBEc-22" value="5 ; 21" style="text;html=1;align=center;verticalAlign=middle;whiteSpace=wrap;rounded=0;" parent="1" vertex="1">
          <mxGeometry x="-10" y="250" width="60" height="30" as="geometry" />
        </mxCell>
        <mxCell id="zjCCnRBUAYXtm5TMgBEc-23" value="17 ; 11" style="text;html=1;align=center;verticalAlign=middle;whiteSpace=wrap;rounded=0;" parent="1" vertex="1">
          <mxGeometry x="120" y="120" width="60" height="30" as="geometry" />
        </mxCell>
        <mxCell id="zjCCnRBUAYXtm5TMgBEc-24" value="17 ; 15" style="text;html=1;align=center;verticalAlign=middle;whiteSpace=wrap;rounded=0;" parent="1" vertex="1">
          <mxGeometry x="120" y="170" width="60" height="30" as="geometry" />
        </mxCell>
        <mxCell id="zjCCnRBUAYXtm5TMgBEc-25" value="17 ; 19" style="text;html=1;align=center;verticalAlign=middle;whiteSpace=wrap;rounded=0;" parent="1" vertex="1">
          <mxGeometry x="120" y="220" width="60" height="30" as="geometry" />
        </mxCell>
        <mxCell id="zjCCnRBUAYXtm5TMgBEc-26" value="17 ; 23" style="text;html=1;align=center;verticalAlign=middle;whiteSpace=wrap;rounded=0;" parent="1" vertex="1">
          <mxGeometry x="120" y="270" width="60" height="30" as="geometry" />
        </mxCell>
        <mxCell id="zjCCnRBUAYXtm5TMgBEc-27" value="19 ; 9" style="text;html=1;align=center;verticalAlign=middle;whiteSpace=wrap;rounded=0;" parent="1" vertex="1">
          <mxGeometry x="160" y="100" width="60" height="30" as="geometry" />
        </mxCell>
        <mxCell id="zjCCnRBUAYXtm5TMgBEc-28" value="19 ; 13" style="text;html=1;align=center;verticalAlign=middle;whiteSpace=wrap;rounded=0;" parent="1" vertex="1">
          <mxGeometry x="160" y="150" width="60" height="30" as="geometry" />
        </mxCell>
        <mxCell id="zjCCnRBUAYXtm5TMgBEc-29" value="19 ; 17" style="text;html=1;align=center;verticalAlign=middle;whiteSpace=wrap;rounded=0;" parent="1" vertex="1">
          <mxGeometry x="160" y="200" width="60" height="30" as="geometry" />
        </mxCell>
        <mxCell id="zjCCnRBUAYXtm5TMgBEc-30" value="19 ; 21" style="text;html=1;align=center;verticalAlign=middle;whiteSpace=wrap;rounded=0;" parent="1" vertex="1">
          <mxGeometry x="160" y="250" width="60" height="30" as="geometry" />
        </mxCell>
        <mxCell id="zjCCnRBUAYXtm5TMgBEc-31" value="31 ; 11" style="text;html=1;align=center;verticalAlign=middle;whiteSpace=wrap;rounded=0;" parent="1" vertex="1">
          <mxGeometry x="290" y="120" width="60" height="30" as="geometry" />
        </mxCell>
        <mxCell id="zjCCnRBUAYXtm5TMgBEc-32" value="45 ; 11" style="text;html=1;align=center;verticalAlign=middle;whiteSpace=wrap;rounded=0;" parent="1" vertex="1">
          <mxGeometry x="460" y="120" width="60" height="30" as="geometry" />
        </mxCell>
        <mxCell id="zjCCnRBUAYXtm5TMgBEc-33" value="33 ; 9" style="text;html=1;align=center;verticalAlign=middle;whiteSpace=wrap;rounded=0;" parent="1" vertex="1">
          <mxGeometry x="330" y="100" width="60" height="30" as="geometry" />
        </mxCell>
        <mxCell id="zjCCnRBUAYXtm5TMgBEc-34" value="31 ; 15" style="text;html=1;align=center;verticalAlign=middle;whiteSpace=wrap;rounded=0;" parent="1" vertex="1">
          <mxGeometry x="290" y="170" width="60" height="30" as="geometry" />
        </mxCell>
        <mxCell id="zjCCnRBUAYXtm5TMgBEc-35" value="31 ; 19" style="text;html=1;align=center;verticalAlign=middle;whiteSpace=wrap;rounded=0;" parent="1" vertex="1">
          <mxGeometry x="290" y="220" width="60" height="30" as="geometry" />
        </mxCell>
        <mxCell id="zjCCnRBUAYXtm5TMgBEc-36" value="31 ; 23" style="text;html=1;align=center;verticalAlign=middle;whiteSpace=wrap;rounded=0;" parent="1" vertex="1">
          <mxGeometry x="290" y="270" width="60" height="30" as="geometry" />
        </mxCell>
        <mxCell id="zjCCnRBUAYXtm5TMgBEc-37" value="33 ; 13" style="text;html=1;align=center;verticalAlign=middle;whiteSpace=wrap;rounded=0;" parent="1" vertex="1">
          <mxGeometry x="330" y="150" width="60" height="30" as="geometry" />
        </mxCell>
        <mxCell id="zjCCnRBUAYXtm5TMgBEc-38" value="33 ; 17" style="text;html=1;align=center;verticalAlign=middle;whiteSpace=wrap;rounded=0;" parent="1" vertex="1">
          <mxGeometry x="330" y="200" width="60" height="30" as="geometry" />
        </mxCell>
        <mxCell id="zjCCnRBUAYXtm5TMgBEc-39" value="33 ; 21" style="text;html=1;align=center;verticalAlign=middle;whiteSpace=wrap;rounded=0;" parent="1" vertex="1">
          <mxGeometry x="330" y="250" width="60" height="30" as="geometry" />
        </mxCell>
        <mxCell id="zjCCnRBUAYXtm5TMgBEc-40" value="45 ; 15" style="text;html=1;align=center;verticalAlign=middle;whiteSpace=wrap;rounded=0;" parent="1" vertex="1">
          <mxGeometry x="460" y="170" width="60" height="30" as="geometry" />
        </mxCell>
        <mxCell id="zjCCnRBUAYXtm5TMgBEc-41" value="45 ; 19" style="text;html=1;align=center;verticalAlign=middle;whiteSpace=wrap;rounded=0;" parent="1" vertex="1">
          <mxGeometry x="460" y="220" width="60" height="30" as="geometry" />
        </mxCell>
        <mxCell id="zjCCnRBUAYXtm5TMgBEc-42" value="45 ; 23" style="text;html=1;align=center;verticalAlign=middle;whiteSpace=wrap;rounded=0;" parent="1" vertex="1">
          <mxGeometry x="460" y="270" width="60" height="30" as="geometry" />
        </mxCell>
        <mxCell id="zjCCnRBUAYXtm5TMgBEc-45" value="47 ; 9" style="text;html=1;align=center;verticalAlign=middle;whiteSpace=wrap;rounded=0;" parent="1" vertex="1">
          <mxGeometry x="500" y="100" width="60" height="30" as="geometry" />
        </mxCell>
        <mxCell id="zjCCnRBUAYXtm5TMgBEc-46" value="47 ; 13" style="text;html=1;align=center;verticalAlign=middle;whiteSpace=wrap;rounded=0;" parent="1" vertex="1">
          <mxGeometry x="500" y="150" width="60" height="30" as="geometry" />
        </mxCell>
        <mxCell id="zjCCnRBUAYXtm5TMgBEc-47" value="47 ; 17" style="text;html=1;align=center;verticalAlign=middle;whiteSpace=wrap;rounded=0;" parent="1" vertex="1">
          <mxGeometry x="500" y="200" width="60" height="30" as="geometry" />
        </mxCell>
        <mxCell id="zjCCnRBUAYXtm5TMgBEc-48" value="47 ; 21" style="text;html=1;align=center;verticalAlign=middle;whiteSpace=wrap;rounded=0;" parent="1" vertex="1">
          <mxGeometry x="500" y="250" width="60" height="30" as="geometry" />
        </mxCell>
        <mxCell id="zjCCnRBUAYXtm5TMgBEc-49" value="59 ; 11" style="text;html=1;align=center;verticalAlign=middle;whiteSpace=wrap;rounded=0;" parent="1" vertex="1">
          <mxGeometry x="630" y="120" width="60" height="30" as="geometry" />
        </mxCell>
        <mxCell id="zjCCnRBUAYXtm5TMgBEc-52" value="59 ; 15" style="text;html=1;align=center;verticalAlign=middle;whiteSpace=wrap;rounded=0;" parent="1" vertex="1">
          <mxGeometry x="630" y="170" width="60" height="30" as="geometry" />
        </mxCell>
        <mxCell id="zjCCnRBUAYXtm5TMgBEc-53" value="59 ; 19" style="text;html=1;align=center;verticalAlign=middle;whiteSpace=wrap;rounded=0;" parent="1" vertex="1">
          <mxGeometry x="630" y="220" width="60" height="30" as="geometry" />
        </mxCell>
        <mxCell id="zjCCnRBUAYXtm5TMgBEc-54" value="59 ; 23" style="text;html=1;align=center;verticalAlign=middle;whiteSpace=wrap;rounded=0;" parent="1" vertex="1">
          <mxGeometry x="630" y="270" width="60" height="30" as="geometry" />
        </mxCell>
        <mxCell id="zjCCnRBUAYXtm5TMgBEc-55" value="61 ; 9" style="text;html=1;align=center;verticalAlign=middle;whiteSpace=wrap;rounded=0;" parent="1" vertex="1">
          <mxGeometry x="670" y="100" width="60" height="30" as="geometry" />
        </mxCell>
        <mxCell id="zjCCnRBUAYXtm5TMgBEc-56" value="61 ; 13" style="text;html=1;align=center;verticalAlign=middle;whiteSpace=wrap;rounded=0;" parent="1" vertex="1">
          <mxGeometry x="670" y="150" width="60" height="30" as="geometry" />
        </mxCell>
        <mxCell id="zjCCnRBUAYXtm5TMgBEc-57" value="61 ; 17" style="text;html=1;align=center;verticalAlign=middle;whiteSpace=wrap;rounded=0;" parent="1" vertex="1">
          <mxGeometry x="670" y="200" width="60" height="30" as="geometry" />
        </mxCell>
        <mxCell id="zjCCnRBUAYXtm5TMgBEc-58" value="61 ; 21" style="text;html=1;align=center;verticalAlign=middle;whiteSpace=wrap;rounded=0;" parent="1" vertex="1">
          <mxGeometry x="670" y="250" width="60" height="30" as="geometry" />
        </mxCell>
        <mxCell id="zjCCnRBUAYXtm5TMgBEc-59" value="73 ; 11" style="text;html=1;align=center;verticalAlign=middle;whiteSpace=wrap;rounded=0;" parent="1" vertex="1">
          <mxGeometry x="800" y="120" width="60" height="30" as="geometry" />
        </mxCell>
        <mxCell id="zjCCnRBUAYXtm5TMgBEc-60" value="73 ; 15" style="text;html=1;align=center;verticalAlign=middle;whiteSpace=wrap;rounded=0;" parent="1" vertex="1">
          <mxGeometry x="800" y="170" width="60" height="30" as="geometry" />
        </mxCell>
        <mxCell id="zjCCnRBUAYXtm5TMgBEc-61" value="73 ; 19" style="text;html=1;align=center;verticalAlign=middle;whiteSpace=wrap;rounded=0;" parent="1" vertex="1">
          <mxGeometry x="800" y="220" width="60" height="30" as="geometry" />
        </mxCell>
        <mxCell id="zjCCnRBUAYXtm5TMgBEc-62" value="73 ; 23" style="text;html=1;align=center;verticalAlign=middle;whiteSpace=wrap;rounded=0;" parent="1" vertex="1">
          <mxGeometry x="790" y="270" width="60" height="30" as="geometry" />
        </mxCell>
        <mxCell id="6VfoB7RLOyd39E9vlnWH-1" value="&lt;font color=&quot;#66b2ff&quot;&gt;input area&lt;/font&gt;" style="text;html=1;align=center;verticalAlign=middle;whiteSpace=wrap;rounded=0;" vertex="1" parent="1">
          <mxGeometry x="380" y="10" width="60" height="30" as="geometry" />
        </mxCell>
        <mxCell id="6VfoB7RLOyd39E9vlnWH-2" value="&lt;font color=&quot;#66b2ff&quot;&gt;output area&lt;/font&gt;" style="text;html=1;align=center;verticalAlign=middle;whiteSpace=wrap;rounded=0;" vertex="1" parent="1">
          <mxGeometry x="290" y="60" width="100" height="30" as="geometry" />
        </mxCell>
        <mxCell id="6VfoB7RLOyd39E9vlnWH-3" value="" style="endArrow=none;html=1;rounded=0;" edge="1" parent="1">
          <mxGeometry width="50" height="50" relative="1" as="geometry">
            <mxPoint x="510" y="300" as="sourcePoint" />
            <mxPoint x="510" y="50" as="targetPoint" />
          </mxGeometry>
        </mxCell>
        <mxCell id="6VfoB7RLOyd39E9vlnWH-4" value="45 ; 7" style="text;html=1;align=center;verticalAlign=middle;whiteSpace=wrap;rounded=0;" vertex="1" parent="1">
          <mxGeometry x="460" y="70" width="60" height="30" as="geometry" />
        </mxCell>
        <mxCell id="6VfoB7RLOyd39E9vlnWH-5" value="47 ; 5" style="text;html=1;align=center;verticalAlign=middle;whiteSpace=wrap;rounded=0;" vertex="1" parent="1">
          <mxGeometry x="500" y="50" width="60" height="30" as="geometry" />
        </mxCell>
        <mxCell id="6VfoB7RLOyd39E9vlnWH-6" value="&lt;font color=&quot;#66b2ff&quot;&gt;=&lt;/font&gt;" style="text;html=1;align=center;verticalAlign=middle;whiteSpace=wrap;rounded=0;" vertex="1" parent="1">
          <mxGeometry x="560" y="60" width="60" height="30" as="geometry" />
        </mxCell>
        <mxCell id="6VfoB7RLOyd39E9vlnWH-7" value="&lt;font color=&quot;#66b2ff&quot;&gt;Del&lt;/font&gt;" style="text;html=1;align=center;verticalAlign=middle;whiteSpace=wrap;rounded=0;" vertex="1" parent="1">
          <mxGeometry x="740" y="60" width="60" height="30" as="geometry" />
        </mxCell>
        <mxCell id="6VfoB7RLOyd39E9vlnWH-8" value="&lt;font color=&quot;#66b2ff&quot;&gt;Number cell 1&lt;/font&gt;" style="text;html=1;align=center;verticalAlign=middle;whiteSpace=wrap;rounded=0;" vertex="1" parent="1">
          <mxGeometry x="60" y="110" width="60" height="30" as="geometry" />
        </mxCell>
        <mxCell id="6VfoB7RLOyd39E9vlnWH-9" value="&lt;font color=&quot;#66b2ff&quot;&gt;Number cell 2&lt;/font&gt;" style="text;html=1;align=center;verticalAlign=middle;whiteSpace=wrap;rounded=0;" vertex="1" parent="1">
          <mxGeometry x="230" y="110" width="60" height="30" as="geometry" />
        </mxCell>
        <mxCell id="6VfoB7RLOyd39E9vlnWH-10" value="&lt;font color=&quot;#66b2ff&quot;&gt;Number cell 3&lt;/font&gt;&lt;span style=&quot;color: rgba(0, 0, 0, 0); font-family: monospace; font-size: 0px; text-align: start; text-wrap: nowrap;&quot;&gt;%3CmxGraphModel%3E%3Croot%3E%3CmxCell%20id%3D%220%22%2F%3E%3CmxCell%20id%3D%221%22%20parent%3D%220%22%2F%3E%3CmxCell%20id%3D%222%22%20value%3D%22%26lt%3Bfont%20color%3D%26quot%3B%2366b2ff%26quot%3B%26gt%3BNumber%20cell%201%26lt%3B%2Ffont%26gt%3B%22%20style%3D%22text%3Bhtml%3D1%3Balign%3Dcenter%3BverticalAlign%3Dmiddle%3BwhiteSpace%3Dwrap%3Brounded%3D0%3B%22%20vertex%3D%221%22%20parent%3D%221%22%3E%3CmxGeometry%20x%3D%2260%22%20y%3D%22110%22%20width%3D%2260%22%20height%3D%2230%22%20as%3D%22geometry%22%2F%3E%3C%2FmxCell%3E%3C%2Froot%3E%3C%2FmxGraphModel%3E&lt;/span&gt;" style="text;html=1;align=center;verticalAlign=middle;whiteSpace=wrap;rounded=0;" vertex="1" parent="1">
          <mxGeometry x="395" y="110" width="60" height="30" as="geometry" />
        </mxCell>
        <mxCell id="6VfoB7RLOyd39E9vlnWH-11" value="&lt;font color=&quot;#66b2ff&quot;&gt;Number cell 4&lt;/font&gt;" style="text;html=1;align=center;verticalAlign=middle;whiteSpace=wrap;rounded=0;" vertex="1" parent="1">
          <mxGeometry x="60" y="160" width="60" height="30" as="geometry" />
        </mxCell>
        <mxCell id="6VfoB7RLOyd39E9vlnWH-12" value="&lt;font color=&quot;#66b2ff&quot;&gt;Number cell 5&lt;/font&gt;" style="text;html=1;align=center;verticalAlign=middle;whiteSpace=wrap;rounded=0;" vertex="1" parent="1">
          <mxGeometry x="230" y="160" width="60" height="30" as="geometry" />
        </mxCell>
        <mxCell id="6VfoB7RLOyd39E9vlnWH-13" value="&lt;font color=&quot;#66b2ff&quot;&gt;Number cell 6&lt;/font&gt;" style="text;html=1;align=center;verticalAlign=middle;whiteSpace=wrap;rounded=0;" vertex="1" parent="1">
          <mxGeometry x="395" y="160" width="60" height="30" as="geometry" />
        </mxCell>
        <mxCell id="6VfoB7RLOyd39E9vlnWH-14" value="&lt;font color=&quot;#66b2ff&quot;&gt;Number cell 7&lt;/font&gt;" style="text;html=1;align=center;verticalAlign=middle;whiteSpace=wrap;rounded=0;" vertex="1" parent="1">
          <mxGeometry x="60" y="210" width="60" height="30" as="geometry" />
        </mxCell>
        <mxCell id="6VfoB7RLOyd39E9vlnWH-15" value="&lt;font color=&quot;#66b2ff&quot;&gt;Number cell 10&lt;/font&gt;" style="text;html=1;align=center;verticalAlign=middle;whiteSpace=wrap;rounded=0;" vertex="1" parent="1">
          <mxGeometry x="60" y="260" width="60" height="30" as="geometry" />
        </mxCell>
        <mxCell id="6VfoB7RLOyd39E9vlnWH-16" value="&lt;font color=&quot;#66b2ff&quot;&gt;Number cell 9&lt;/font&gt;" style="text;html=1;align=center;verticalAlign=middle;whiteSpace=wrap;rounded=0;" vertex="1" parent="1">
          <mxGeometry x="395" y="210" width="60" height="30" as="geometry" />
        </mxCell>
        <mxCell id="6VfoB7RLOyd39E9vlnWH-17" value="&lt;font color=&quot;#66b2ff&quot;&gt;Number cell 8&lt;/font&gt;" style="text;html=1;align=center;verticalAlign=middle;whiteSpace=wrap;rounded=0;" vertex="1" parent="1">
          <mxGeometry x="230" y="210" width="60" height="30" as="geometry" />
        </mxCell>
        <mxCell id="6VfoB7RLOyd39E9vlnWH-19" value="&lt;font color=&quot;#66b2ff&quot;&gt;.&lt;/font&gt;" style="text;html=1;align=center;verticalAlign=middle;whiteSpace=wrap;rounded=0;" vertex="1" parent="1">
          <mxGeometry x="230" y="260" width="60" height="30" as="geometry" />
        </mxCell>
        <mxCell id="6VfoB7RLOyd39E9vlnWH-20" value="&lt;font color=&quot;#66b2ff&quot;&gt;NEG&lt;/font&gt;" style="text;html=1;align=center;verticalAlign=middle;whiteSpace=wrap;rounded=0;" vertex="1" parent="1">
          <mxGeometry x="395" y="260" width="60" height="30" as="geometry" />
        </mxCell>
        <mxCell id="6VfoB7RLOyd39E9vlnWH-21" value="&lt;font color=&quot;#66b2ff&quot;&gt;EAN13&lt;/font&gt;" style="text;html=1;align=center;verticalAlign=middle;whiteSpace=wrap;rounded=0;" vertex="1" parent="1">
          <mxGeometry x="560" y="110" width="60" height="30" as="geometry" />
        </mxCell>
        <mxCell id="6VfoB7RLOyd39E9vlnWH-22" value="&lt;font color=&quot;#66b2ff&quot;&gt;NIF&lt;/font&gt;" style="text;html=1;align=center;verticalAlign=middle;whiteSpace=wrap;rounded=0;" vertex="1" parent="1">
          <mxGeometry x="740" y="110" width="60" height="30" as="geometry" />
        </mxCell>
        <mxCell id="6VfoB7RLOyd39E9vlnWH-23" value="&lt;font color=&quot;#66b2ff&quot;&gt;SQRT&lt;/font&gt;" style="text;html=1;align=center;verticalAlign=middle;whiteSpace=wrap;rounded=0;" vertex="1" parent="1">
          <mxGeometry x="560" y="160" width="60" height="30" as="geometry" />
        </mxCell>
        <mxCell id="6VfoB7RLOyd39E9vlnWH-24" value="&lt;font color=&quot;#66b2ff&quot;&gt;C C&lt;/font&gt;" style="text;html=1;align=center;verticalAlign=middle;whiteSpace=wrap;rounded=0;" vertex="1" parent="1">
          <mxGeometry x="740" y="160" width="60" height="30" as="geometry" />
        </mxCell>
        <mxCell id="6VfoB7RLOyd39E9vlnWH-25" value="&lt;font color=&quot;#66b2ff&quot;&gt;+&lt;/font&gt;" style="text;html=1;align=center;verticalAlign=middle;whiteSpace=wrap;rounded=0;" vertex="1" parent="1">
          <mxGeometry x="560" y="210" width="60" height="30" as="geometry" />
        </mxCell>
        <mxCell id="6VfoB7RLOyd39E9vlnWH-26" value="&lt;font color=&quot;#66b2ff&quot;&gt;-&lt;/font&gt;" style="text;html=1;align=center;verticalAlign=middle;whiteSpace=wrap;rounded=0;" vertex="1" parent="1">
          <mxGeometry x="740" y="210" width="60" height="30" as="geometry" />
        </mxCell>
        <mxCell id="6VfoB7RLOyd39E9vlnWH-27" value="&lt;font color=&quot;#66b2ff&quot;&gt;*&lt;/font&gt;" style="text;html=1;align=center;verticalAlign=middle;whiteSpace=wrap;rounded=0;" vertex="1" parent="1">
          <mxGeometry x="560" y="260" width="60" height="30" as="geometry" />
        </mxCell>
        <mxCell id="6VfoB7RLOyd39E9vlnWH-28" value="&lt;font color=&quot;#66b2ff&quot;&gt;/&lt;/font&gt;" style="text;html=1;align=center;verticalAlign=middle;whiteSpace=wrap;rounded=0;" vertex="1" parent="1">
          <mxGeometry x="740" y="260" width="60" height="30" as="geometry" />
        </mxCell>
      </root>
    </mxGraphModel>
  </diagram>
</mxfile>
